<svg id="Слой_1" data-name="Слой 1" xmlns="http://www.w3.org/2000/svg" viewBox="0 0 100 100"><defs><style>.cls-1,.cls-8{fill:none;}.cls-2{fill:#fff;}.cls-3{fill:#f9e3d6;}.cls-4{fill:#f7d1d0;}.cls-5{fill:#f2b098;}.cls-6{fill:#502a17;}.cls-7{fill:#bf8d86;}.cls-8{stroke:#502a17;stroke-linecap:round;stroke-linejoin:round;stroke-width:1.5px;}</style></defs><g id="_0" data-name="0"><path id="_0-2" data-name="0" class="cls-1" d="M50,100a50,50,0,1,1,50-50A50.06,50.06,0,0,1,50,100Z"/><path id="_0-3" data-name="0" class="cls-2" d="M29.41,72a.07.07,0,0,0-.05-.1c-.24-.06-.49-.13-.74-.17a31.7,31.7,0,0,1-6.69-1.87c-.4-.16-.79-.3-1.17-.49a19.62,19.62,0,0,1-3-1.74.06.06,0,0,0-.09.05c0,.49.07.94.07,1.37,0,1,.08,2,.14,2.94a8.89,8.89,0,0,1,.07.89,3.6,3.6,0,0,0,0,.65c.08.51.14,1,.19,1.47a31.75,31.75,0,0,0,.55,3.24,15.13,15.13,0,0,0,1.17,3.5,2.69,2.69,0,0,0,2.59,1.52A15.46,15.46,0,0,0,26.28,83a.11.11,0,0,0,.08-.08q.29-1.3.57-2.76c.16-.75.33-1.5.54-2.25A45.23,45.23,0,0,1,29.41,72Z"/><path id="_0-4" data-name="0" class="cls-2" d="M62.89,75.14a5.45,5.45,0,0,1,4-1.79.23.23,0,0,0,.21-.13,18.49,18.49,0,0,1,2-2.92c.71-.83,1.6-1.81,2.68-2.94a54.86,54.86,0,0,0,4.38-5.22c.35-.47.66-1,1-1.49a25.66,25.66,0,0,0,2.07-3.91A40.6,40.6,0,0,0,81,51.35c.16-.61.53-1.15,1.27-.92a.87.87,0,0,1,.54,1.06,40.66,40.66,0,0,1-1.33,4.3,1.41,1.41,0,0,0-.07.41q.09,6.44-.4,12.66c-.21,2.73-.45,5.38-.73,7.93-.3,2.76-.62,5.54-1,8.36-.06.51-.12,1-.19,1.5s-.19,2.1.66,1.89a6.88,6.88,0,0,0,1.61-.63,16.55,16.55,0,0,0,2.66-1.71,18.18,18.18,0,0,0,3.09-3.11,2.23,2.23,0,0,0,.42-1c.37-2,.7-3.84,1-5.37.15-.84.31-1.76.48-2.75q1.08-6.33,1.72-12.83c.19-2,.33-4.07.41-6,.08-2,.08-4.28,0-6.71a57.36,57.36,0,0,0-.88-8.15A45.2,45.2,0,0,0,89,35.23c-.08-.26-.16-.26-.22,0s-.19.64-.31,1-.34.77-.86.86a1,1,0,0,1-1.18-.55A64.06,64.06,0,0,0,75.79,20.44a34.38,34.38,0,0,0-3-2.94,1,1,0,0,1,.29-1.86,6.62,6.62,0,0,1,1.55-.2q.36,0,.06-.21A43.81,43.81,0,0,0,57.35,8.54a57.52,57.52,0,0,0-6.21-.69c-.76,0-1.54-.07-2.35-.07-1.29,0-2.4,0-3.35,0a45.47,45.47,0,0,0-4.91.49,36.79,36.79,0,0,0-5.88,1.42,30.62,30.62,0,0,0-6.24,2.86c-.68.4-1.35.85-2,1.33a28.56,28.56,0,0,0-9.9,13.29,39.81,39.81,0,0,0-1.65,6.15,49.52,49.52,0,0,0-.65,5c0,.2,0,.41,0,.61h0c.11-.53.22-1.05.32-1.55a33.88,33.88,0,0,1,2.18-7A1.72,1.72,0,0,0,17,29.29a9.94,9.94,0,0,1,0-1.82c0-.64.34-1,1-1a.86.86,0,0,1,.73,1,4.32,4.32,0,0,0,0,.95,26.13,26.13,0,0,0,1.51,7.1.47.47,0,0,0,.37.32,17.62,17.62,0,0,0,2.39.44c.82.09,1.64.15,2.44.18a32.19,32.19,0,0,0,3.7-.09,12.6,12.6,0,0,0,2.61-.48s.07,0,.07-.09A9.22,9.22,0,0,1,32,34c.11-.54.23-1.09.36-1.66A24.37,24.37,0,0,1,33.47,29a.51.51,0,0,0,0-.4,4.46,4.46,0,0,1-.29-1.21A.88.88,0,0,1,34.88,27a29.33,29.33,0,0,0,1.56,4.41,27.37,27.37,0,0,0,2.33,4.27,1.38,1.38,0,0,0,.73.63,20.39,20.39,0,0,0,2.1.45c.76.13,1.48.23,2.15.29a39,39,0,0,0,7.49,0,.16.16,0,0,0,.15-.16,24.88,24.88,0,0,1,.43-4.47A13.28,13.28,0,0,1,52.53,30c.12-.31.23-.63.33-1a1.22,1.22,0,0,1,.27-.51.89.89,0,0,1,1.3.09,2,2,0,0,1,.27.7,28.75,28.75,0,0,0,3,7.67c.18.32.63.36.95.41a36.63,36.63,0,0,0,5.94.51.1.1,0,0,0,.09-.07c.28-.9.55-1.81.83-2.73a1.83,1.83,0,0,1,.28-.58.91.91,0,0,1,1.52.26,1.21,1.21,0,0,1,0,.71c-.41,1.35-.82,2.71-1.21,4.09-.76,2.71-1.6,5.76-2.49,9.17Q62.77,51.95,62,55c-.18.73-.36,1.43-.52,2.09q-.69,2.76-1.37,5.72c-.09.37-.18.77-.28,1.19-.5,2.08-1.15,5.15-2,9.19a.89.89,0,0,0,.09.56A5.88,5.88,0,0,1,58.42,75a6.77,6.77,0,0,1-.66,5,1.72,1.72,0,0,0-.37.81,18.22,18.22,0,0,0,.1,3.22,9.41,9.41,0,0,0,.58,2.53c.35.84,1.88.63,2.56.39a.16.16,0,0,0,.11-.15,23.51,23.51,0,0,1,.82-5.09c.13-.46.24-.81.33-1a1.42,1.42,0,0,0-.06-1A5.38,5.38,0,0,1,62,77,4.41,4.41,0,0,1,62.89,75.14Z"/><path id="_0-5" data-name="0" class="cls-2" d="M79,71.16a.07.07,0,0,0-.1-.07,20.1,20.1,0,0,1-5.43,2,.07.07,0,0,0-.06.1,11.42,11.42,0,0,1,1,3.82,6.27,6.27,0,0,1-1.07,4.55c-.3.33-.57.65-.83,1a.08.08,0,0,0,0,.09,28.3,28.3,0,0,1,.67,3.14.17.17,0,0,0,.18.15l1.06-.07c.13,0,.3.06.44.07a20.92,20.92,0,0,1,2.4.14.12.12,0,0,0,.12-.1c.11-.8.2-1.59.29-2.37s.18-1.66.26-2.3Q78.57,76.22,79,71.16Z"/><path id="_0-6" data-name="0" class="cls-2" d="M75.26,17.15a.09.09,0,0,0-.07,0,0,0,0,0,0,0,.06L76.91,19c.74.86,1.46,1.7,2.15,2.53a61.52,61.52,0,0,1,5.6,7.89c.44.74.9,1.51,1.36,2.3L87.19,34c0,.09.09.09.12,0a62.36,62.36,0,0,0,2.06-8.53,30.29,30.29,0,0,0,.44-4.62q0-.68-.06-1.29a.19.19,0,0,0-.09-.14,1.81,1.81,0,0,0-.35-.16A33.65,33.65,0,0,0,75.26,17.15Z"/><path id="_0-7" data-name="0" class="cls-2" d="M73.77,91.9h0c0-.24,0-.52-.06-.83Q73.74,91.53,73.77,91.9Z"/><path id="_0-8" data-name="0" class="cls-2" d="M77.33,88a4.47,4.47,0,0,0,.22.76,4.47,4.47,0,0,1-.22-.76Z"/><path id="_0-9" data-name="0" class="cls-2" d="M77.15,87.82c-1.05-.06-2-.12-3-.19a3,3,0,0,0-.64,0s0,0,0,0,0,0,0,0a2.49,2.49,0,0,1,.64-.05c.93.07,1.93.13,3,.19a.19.19,0,0,1,.17.15A.2.2,0,0,0,77.15,87.82Z"/><path id="_0-10" data-name="0" class="cls-2" d="M15.78,13.23a.47.47,0,0,0-.35.41,20.48,20.48,0,0,0-.37,3.23,65.27,65.27,0,0,0,.22,8.27s0,0,0,0a.09.09,0,0,0,.06-.06c.39-.84.75-1.61,1.07-2.32.66-1.14,1.1-1.89,1.32-2.23a29.94,29.94,0,0,1,5.1-6.07,2.15,2.15,0,0,0,.23-.27l2-1.59s0,0,0,0A28.84,28.84,0,0,0,15.78,13.23Z"/><path id="_0-11" data-name="0" class="cls-2" d="M77.71,89.07c0,.09.08.18.13.27v0C77.79,89.24,77.75,89.15,77.71,89.07Z"/><path id="_0-12" data-name="0" class="cls-2" d="M72.09,92.83l-.19-2.64h0a19.41,19.41,0,0,0-.2-2.44,33,33,0,0,0-.79-4.24.07.07,0,0,0-.09-.05l-1.75.39a7.73,7.73,0,0,1-5.74-1.59c-.06-.05-.09,0-.09,0a.82.82,0,0,1,0,.22c-.16.68-.31,1.4-.45,2.14a4.93,4.93,0,0,0-.1.87,6.9,6.9,0,0,1-.32,2.12,2,2,0,0,1-1.32,1c-1.48.41-3.46.38-4.4-1a5.64,5.64,0,0,1-.67-2c-.12-.64-.23-1.32-.31-2.07a9.71,9.71,0,0,1-.05-1.32.06.06,0,0,0-.09,0,11.21,11.21,0,0,1-1.78.76,14.88,14.88,0,0,1-4,.41c-.62,0-1,0-1.36-.39a.74.74,0,0,1-.12-.79.82.82,0,0,1,.83-.53c2.67,0,5.64-.06,7.16-2.67a5.46,5.46,0,0,0,.52-1.41,3.2,3.2,0,0,0,.09-.75A8.81,8.81,0,0,0,56.8,76a5,5,0,0,0-.68-2,2.79,2.79,0,0,0-2.07-1.39,8.78,8.78,0,0,0-2.55,0,14.67,14.67,0,0,1-2.89.22c-.5,0-1.08-.23-1.16-.79a.76.76,0,0,1,.17-.63c.37-.42.92-.34,1.44-.31a4.72,4.72,0,0,0,.84,0L52,71a7.88,7.88,0,0,1,2.87.13,6,6,0,0,1,1.4.6c.05,0,.09,0,.09-.05.08-.56.19-1.14.34-1.76s.28-1.22.4-1.75c.21-1,.42-2,.63-2.89q1-4.23,1.63-7c.27-1.11.55-2.22.83-3.33l.46-1.8c.14-.61.3-1.21.46-1.8q.72-2.72,1.44-5.49.69-2.57,1.36-5l.3-1c0-.07,0-.11-.08-.11l-1.76-.09c-1.21-.07-2.41-.23-3.61-.39a4.31,4.31,0,0,1-2.06-.68,4.26,4.26,0,0,1-.77-1.1,29.62,29.62,0,0,1-2.15-4.9.15.15,0,0,0-.08-.11s-.06,0-.06,0a25.79,25.79,0,0,0-.46,4.36c0,1-.13,1.85-1.28,2a42.29,42.29,0,0,1-5.4.19c-1,0-2.12-.12-3.35-.24A28.07,28.07,0,0,1,39,38a2.72,2.72,0,0,1-1.53-1.13,28.57,28.57,0,0,1-2.86-5.27c0-.13-.1-.13-.14,0A22.56,22.56,0,0,0,33.54,36a1.59,1.59,0,0,1-1.43,1.65,27.1,27.1,0,0,1-8.75.44,16,16,0,0,1-3.91-.76,1.18,1.18,0,0,1-.61-.54,7.16,7.16,0,0,1-.43-1,19.18,19.18,0,0,1-.78-2.58.08.08,0,0,0,0,0s-.08,0-.09,0a40.2,40.2,0,0,0-2,9.46q-.24,2.73-.26,5.84a.86.86,0,0,1-.08.36,17.77,17.77,0,0,0-1.27,4.56c-.54,3.62-.1,7.1,2.09,10a14.14,14.14,0,0,0,3.59,3.22,24.83,24.83,0,0,0,7.81,3,44.88,44.88,0,0,0,6.27.91l2,.14c.57,0,1,.35.94,1q-.09.71-.93.78l-4.21-.34a.17.17,0,0,0-.19.12A31.8,31.8,0,0,0,30,75.71a59.45,59.45,0,0,0-2.6,14.48c0,.85-.08,1.63-.1,2.3l.83.43a.28.28,0,0,0,.09,0l.37.19a48.27,48.27,0,0,0,42,.42s0,0,.06,0l.37-.18c.13-.07.28-.13.41-.21L71.8,93l.29-.14.13-.08Z"/><path id="_0-13" data-name="0" class="cls-2" d="M63.74,79.89c1,1.94,3.41,2.52,5.47,2.18a4.08,4.08,0,0,0,3-2,4,4,0,0,0,.45-2,10,10,0,0,0-1.06-4.53.16.16,0,0,0-.17-.08,14.25,14.25,0,0,1-1.65.23.07.07,0,0,0,0,.12.86.86,0,0,1-.88,1.43,5.73,5.73,0,0,0-2.38-.19c-2.24.3-3.19,2-3,4.11A1.93,1.93,0,0,0,63.74,79.89Z"/><path id="_0-14" data-name="0" class="cls-2" d="M79.64,60.15a.06.06,0,0,0-.09,0,.32.32,0,0,0-.1.1,30,30,0,0,1-2.68,4c-.35.45-.72.9-1.09,1.36-.88,1.08-2,2.29-3.24,3.61-.3.31-.57.66-.89,1-.49.47-.86,1-1.33,1.53a.26.26,0,0,0-.07.16s0,.07.07.07a24,24,0,0,0,6.54-1.77A21.39,21.39,0,0,0,78.94,69c.27-.16.28-.42.3-.72Q79.54,64.23,79.64,60.15Z"/><path id="_0-15" data-name="0" class="cls-3" d="M55.59,39a.35.35,0,0,1,.46,0C57.47,40,59.2,41.2,63.9,40.8l.3-1c0-.07,0-.11-.08-.11l-1.76-.09c-1.21-.07-2.41-.23-3.61-.39a4.31,4.31,0,0,1-2.06-.68,4.26,4.26,0,0,1-.77-1.1,29.62,29.62,0,0,1-2.15-4.9.15.15,0,0,0-.08-.11s-.06,0-.06,0a25.79,25.79,0,0,0-.46,4.36c0,1-.13,1.85-1.28,2a42.29,42.29,0,0,1-5.4.19c-1,0-2.12-.12-3.35-.24A28.07,28.07,0,0,1,39,38a2.72,2.72,0,0,1-1.53-1.13,28.57,28.57,0,0,1-2.86-5.27c0-.13-.1-.13-.14,0A22.56,22.56,0,0,0,33.54,36a1.59,1.59,0,0,1-1.43,1.65,27.1,27.1,0,0,1-8.75.44,16,16,0,0,1-3.91-.76,1.18,1.18,0,0,1-.61-.54,1.91,1.91,0,0,1-.13-.25c.08,1.06.56,2.18,5.08,2.85,5.69.85,10.05.36,10.61-.47a6.36,6.36,0,0,0,1.19-3,.15.15,0,0,1,.28-.06c1.64,2.63,3,3.61,7.94,4.2S53.89,40.59,55.59,39Z"/><path id="_0-16" data-name="0" class="cls-4" d="M14.52,37.37c-.1.5-.21,1-.32,1.55h0c0-.2,0-.41,0-.61a49.52,49.52,0,0,1,.65-5,39.81,39.81,0,0,1,1.65-6.15,28.63,28.63,0,0,1,9.9-13.29c.67-.48,1.34-.93,2-1.33a30.62,30.62,0,0,1,6.24-2.86A36.79,36.79,0,0,1,40.53,8.3a45.47,45.47,0,0,1,4.91-.49c1,0,2.06,0,3.35,0,.81,0,1.59,0,2.35.07a57.52,57.52,0,0,1,6.21.69,43.81,43.81,0,0,1,17.34,6.69q.3.19-.06.21a6.62,6.62,0,0,0-1.55.2,1,1,0,0,0-.29,1.86,34.38,34.38,0,0,1,3,2.94A64.06,64.06,0,0,1,86.44,36.52a1,1,0,0,0,1.18.55c.52-.09.69-.39.86-.86s.22-.67.31-1,.14-.26.22,0a45.2,45.2,0,0,1,1.23,5.1,56,56,0,0,1,.88,8.15c.09,2.43.09,4.66,0,6.71-.08,1.88-.22,4-.41,6Q90.08,67.63,89,74c-.17,1-.33,1.91-.48,2.75-.26,1.53-.59,3.32-1,5.37a2.23,2.23,0,0,1-.42,1,18.18,18.18,0,0,1-3.09,3.11,16.55,16.55,0,0,1-2.66,1.71,6.88,6.88,0,0,1-1.61.63c-.85.21-.72-1.5-.66-1.89s.13-1,.2-1.5c.33-2.82.65-5.6,1-8.36.28-2.55.52-5.2.73-7.93q.48-6.23.4-12.66a1.41,1.41,0,0,1,.07-.41,40.66,40.66,0,0,0,1.33-4.3.87.87,0,0,0-.54-1.06c-.74-.23-1.11.31-1.27.92a40.6,40.6,0,0,1-1.81,5.39,25.66,25.66,0,0,1-2.07,3.91c-.32.5-.63,1-1,1.49a54.86,54.86,0,0,1-4.38,5.22c-1.08,1.13-2,2.11-2.68,2.94a18.49,18.49,0,0,0-2,2.92.23.23,0,0,1-.21.13,5.49,5.49,0,0,0-4,1.79A4.52,4.52,0,0,0,62,77a5.38,5.38,0,0,0-.12,2.78,1.42,1.42,0,0,1,.06,1c-.09.23-.2.58-.33,1a23.51,23.51,0,0,0-.82,5.09.16.16,0,0,1-.11.15c-.68.24-2.21.45-2.57-.39a9.79,9.79,0,0,1-.57-2.53,18.22,18.22,0,0,1-.1-3.22,1.72,1.72,0,0,1,.37-.81,6.77,6.77,0,0,0,.66-5A5.88,5.88,0,0,0,58,73.74a.89.89,0,0,1-.09-.56c.81-4,1.46-7.11,2-9.19.1-.42.19-.82.28-1.19q.68-3,1.37-5.72c.16-.66.34-1.36.52-2.09q.78-3,1.6-6.21c.89-3.41,1.73-6.46,2.49-9.17.39-1.38.8-2.74,1.21-4.09a1.21,1.21,0,0,0,0-.71.91.91,0,0,0-1.52-.26,1.83,1.83,0,0,0-.28.58c-.28.92-.55,1.83-.83,2.73a.1.1,0,0,1-.09.07,36.63,36.63,0,0,1-5.94-.51c-.32-.05-.77-.09-.95-.41a28.42,28.42,0,0,1-3-7.67,2,2,0,0,0-.27-.7.89.89,0,0,0-1.3-.09,1.22,1.22,0,0,0-.27.51c-.1.34-.21.66-.33,1a13.28,13.28,0,0,0-.71,2.42,24.88,24.88,0,0,0-.43,4.47.16.16,0,0,1-.15.16,39,39,0,0,1-7.49,0c-.67-.06-1.39-.16-2.15-.29a20.39,20.39,0,0,1-2.1-.45,1.38,1.38,0,0,1-.73-.63,27.37,27.37,0,0,1-2.33-4.27A29.33,29.33,0,0,1,34.88,27a.88.88,0,0,0-1.71.37,4.46,4.46,0,0,0,.29,1.21.51.51,0,0,1,0,.4,24.37,24.37,0,0,0-1.1,3.42C32.24,33,32.12,33.5,32,34a9.22,9.22,0,0,0-.23,1.73s0,.07-.07.09a12.6,12.6,0,0,1-2.61.48,32.19,32.19,0,0,1-3.7.09c-.8,0-1.62-.09-2.44-.18a17.62,17.62,0,0,1-2.39-.44.47.47,0,0,1-.37-.32,26.13,26.13,0,0,1-1.51-7.1,4.32,4.32,0,0,1,0-.95.86.86,0,0,0-.73-1c-.7,0-1,.34-1,1a9.94,9.94,0,0,0,0,1.82,1.72,1.72,0,0,1-.26,1.06,33.88,33.88,0,0,0-2.18,7Z"/><path id="_0-17" data-name="0" class="cls-5" d="M23.08,14.23v.06a29.48,29.48,0,0,0-5.32,6.26c-.22.33-.64,1-1.28,2.16A20.06,20.06,0,0,1,16.92,15a.32.32,0,0,1,.21-.2A15.18,15.18,0,0,1,23.08,14.23Z"/><path id="_0-18" data-name="0" class="cls-5" d="M87.85,21A48.57,48.57,0,0,1,86,31.66c-.49-.84-1-1.64-1.43-2.4a60.85,60.85,0,0,0-5.49-7.74c-.69-.82-1.41-1.67-2.15-2.53a30.06,30.06,0,0,1,10.75,1.75A.27.27,0,0,1,87.85,21Z"/><ellipse id="_0-19" data-name="0" class="cls-3" cx="19.68" cy="55.62" rx="4.92" ry="3.55"/><path id="_0-20" data-name="0" class="cls-5" d="M40.61,63.29c-.91-.43-1.22-2-1.27-2.93a15,15,0,0,1,.21-3.45.22.22,0,0,1,.16-.19c.28-.1.54-.21.79-.32a.17.17,0,0,1,.2.05,3.76,3.76,0,0,0,1.35,1,.31.31,0,0,1,.19.26,14,14,0,0,1,0,3.16c-.06.7-.44,3-1.68,2.46Z"/><path id="_0-21" data-name="0" class="cls-6" d="M44.48,55.55a.56.56,0,0,0-.74,0c-.24.17-.24.54-.55.63-.8.23-1.39-.47-1.78-1A.74.74,0,0,0,40.2,55a1.44,1.44,0,0,1-1.23.39c-.34-.13-.16-.81-.74-.91a.66.66,0,0,0-.81.63,1.46,1.46,0,0,0,.76,1.38.15.15,0,0,1,0,.14A18.44,18.44,0,0,0,38,59.42c0,1.79.34,4.32,2.22,5.13a2.23,2.23,0,0,0,3-1.53,12.25,12.25,0,0,0,.44-5.5.12.12,0,0,1,.08-.11,1.52,1.52,0,0,0,1-.82A.81.81,0,0,0,44.48,55.55Zm-2.19,5.28c-.06.7-.44,3-1.68,2.46-.91-.43-1.22-2-1.27-2.93a15,15,0,0,1,.21-3.45.22.22,0,0,1,.16-.19c.28-.1.54-.21.79-.32a.17.17,0,0,1,.2.05,3.76,3.76,0,0,0,1.35,1,.31.31,0,0,1,.19.26A14,14,0,0,1,42.29,60.83Z"/><path id="_0-22" data-name="0" class="cls-3" d="M76.76,70.14a24,24,0,0,1-6.54,1.77s-.07,0-.07-.07a.26.26,0,0,1,.07-.16c.47-.5.84-1.06,1.33-1.53.32-.31.59-.66.89-1,1.28-1.32,2.36-2.53,3.24-3.61.37-.46.74-.91,1.09-1.36a30,30,0,0,0,2.68-4,.32.32,0,0,1,.1-.1.06.06,0,0,1,.09,0q-.11,4.08-.4,8.13c0,.3,0,.56-.3.72a21.39,21.39,0,0,1-2.18,1.14Z"/><path id="_0-23" data-name="0" class="cls-7" d="M21.93,69.86a31.7,31.7,0,0,0,6.69,1.87c.25,0,.5.11.74.17a.07.07,0,0,1,.05.1,45.23,45.23,0,0,0-1.94,5.9c-.21.75-.38,1.5-.54,2.25q-.29,1.45-.57,2.76a.11.11,0,0,1-.08.08,15.46,15.46,0,0,1-3.76.27,2.69,2.69,0,0,1-2.59-1.52,15.13,15.13,0,0,1-1.17-3.5A31.75,31.75,0,0,1,18.21,75c-.05-.47-.11-1-.19-1.47a3.6,3.6,0,0,1,0-.65,8.89,8.89,0,0,0-.07-.89c-.06-1-.13-2-.14-2.94,0-.43,0-.88-.07-1.37a.06.06,0,0,1,.09-.05,19.62,19.62,0,0,0,3,1.74c.38.19.77.33,1.17.49Z"/><path id="_0-24" data-name="0" class="cls-7" d="M74.45,77a11.42,11.42,0,0,0-1-3.82.07.07,0,0,1,.06-.1,20.1,20.1,0,0,0,5.43-2,.07.07,0,0,1,.1.07Q78.56,76.22,78,81.29c-.08.64-.17,1.4-.26,2.3s-.18,1.57-.29,2.37a.12.12,0,0,1-.12.1,20.92,20.92,0,0,0-2.4-.14c-.14,0-.31-.07-.44-.07l-1.06.07a.17.17,0,0,1-.18-.15,28.3,28.3,0,0,0-.67-3.14.08.08,0,0,1,0-.09c.26-.31.53-.63.83-1A6.27,6.27,0,0,0,74.45,77Z"/><path id="_0-25" data-name="0" class="cls-6" d="M92.93,50a55.68,55.68,0,0,0-1.51-12.63,49,49,0,0,0-1.6-5.27.7.7,0,0,1,0-.38c.13-.46.25-.92.36-1.36a52.76,52.76,0,0,0,1.25-6.7A23.77,23.77,0,0,0,91.55,20c0-.84,0-1.82-.93-2.18a34.49,34.49,0,0,0-12.51-2.5,1.26,1.26,0,0,1-.76-.36A43.92,43.92,0,0,0,59.71,7.19Q57,6.62,53.58,6.26c-.83-.09-1.67-.12-2.51-.18C50.47,6,49.85,6,49.21,6c-1.73,0-3.4,0-5,.1-.7,0-1.45.11-2.25.23l-2.24.32a35,35,0,0,0-3.92.88A32.4,32.4,0,0,0,27.7,11a.81.81,0,0,1-.64.12c-.68-.09-1.36-.2-2-.25a40.06,40.06,0,0,0-5,0c-.86,0-1.79.18-2.65.31a15.74,15.74,0,0,0-2.33.53c-.93.28-1.14.74-1.3,1.63a25.29,25.29,0,0,0-.42,3.47c-.07,1.87-.06,3.7,0,5.52,0,1.18.18,2.34.24,3.5,0,.65.16,1.3.21,1.95A10.91,10.91,0,0,0,14,28.83a1.06,1.06,0,0,1,0,.5,44,44,0,0,0-1.32,6.86c-.12,1.07-.25,2.14-.3,3.21a61.66,61.66,0,0,0,.32,10.77,2.43,2.43,0,0,1-.07.93A20.18,20.18,0,0,0,12,56.68a13.18,13.18,0,0,0,2.85,8.1c.33.41.68.8,1,1.19a.71.71,0,0,1,.1.14.63.63,0,0,1,0,.14,62.73,62.73,0,0,0,.35,8c.14,1.33.33,2.63.58,3.88a19.2,19.2,0,0,0,.94,3.3,9,9,0,0,0,1.14,2A4.53,4.53,0,0,0,22.43,85a14.2,14.2,0,0,0,3.34-.19H26a.11.11,0,0,1,.09.13c-.19,1.36-.35,2.77-.45,4.22,0,.22,0,.44,0,.67h0V90l0,1.58c.43.25.86.5,1.3.74l.39.21c0-.67.06-1.45.1-2.3h0A59.45,59.45,0,0,1,30,75.71a31.8,31.8,0,0,1,1.29-3.44.17.17,0,0,1,.19-.12l4.21.34q.84-.08.93-.78c.08-.65-.37-1-.94-1l-2-.14a44.88,44.88,0,0,1-6.27-.91,24.83,24.83,0,0,1-7.81-3A14.14,14.14,0,0,1,16,63.45c-2.19-2.9-2.63-6.38-2.09-10a17.77,17.77,0,0,1,1.27-4.56.86.86,0,0,0,.08-.36q0-3.11.26-5.84a40.2,40.2,0,0,1,2-9.46s.05,0,.09,0a.08.08,0,0,1,0,0,19.18,19.18,0,0,0,.78,2.58,7.16,7.16,0,0,0,.43,1,1.18,1.18,0,0,0,.61.54,16,16,0,0,0,3.91.76,27.1,27.1,0,0,0,8.75-.44A1.59,1.59,0,0,0,33.54,36a22.56,22.56,0,0,1,.89-4.38c0-.13.09-.13.14,0a28.57,28.57,0,0,0,2.86,5.27A2.72,2.72,0,0,0,39,38a28.07,28.07,0,0,0,4.18.75c1.23.12,2.35.21,3.35.24a42.29,42.29,0,0,0,5.4-.19c1.15-.11,1.26-.95,1.28-2a25.79,25.79,0,0,1,.46-4.36s0-.06.06,0a.15.15,0,0,1,.08.11,29.62,29.62,0,0,0,2.15,4.9,4.26,4.26,0,0,0,.77,1.1,4.31,4.31,0,0,0,2.06.68c1.2.16,2.4.32,3.61.39l1.76.09c.07,0,.1,0,.08.11l-.3,1q-.67,2.43-1.36,5-.72,2.77-1.44,5.49c-.16.59-.32,1.19-.46,1.8l-.46,1.8c-.28,1.11-.56,2.22-.83,3.33q-.68,2.76-1.63,7c-.21.94-.42,1.9-.63,2.89-.12.53-.25,1.11-.4,1.75s-.26,1.2-.34,1.76c0,.06,0,.08-.09.05a6,6,0,0,0-1.4-.6A7.88,7.88,0,0,0,52,71l-2.09.25a4.72,4.72,0,0,1-.84,0c-.52,0-1.07-.11-1.44.31a.76.76,0,0,0-.17.63c.08.56.66.77,1.16.79a14.67,14.67,0,0,0,2.89-.22,8.78,8.78,0,0,1,2.55,0,2.79,2.79,0,0,1,2.07,1.39,5,5,0,0,1,.68,2,8.81,8.81,0,0,1,.05.92,3.2,3.2,0,0,1-.09.75,5.46,5.46,0,0,1-.52,1.41c-1.52,2.61-4.49,2.71-7.16,2.67a.82.82,0,0,0-.83.53.74.74,0,0,0,.12.79c.36.41.74.38,1.36.39a14.88,14.88,0,0,0,4-.41,11.21,11.21,0,0,0,1.78-.76.06.06,0,0,1,.09,0,9.71,9.71,0,0,0,.05,1.32c.08.75.19,1.43.31,2.07a5.64,5.64,0,0,0,.67,2c.94,1.36,2.92,1.39,4.4,1a2,2,0,0,0,1.32-1,6.9,6.9,0,0,0,.32-2.12,4.93,4.93,0,0,1,.1-.87c.14-.74.29-1.46.45-2.14a.82.82,0,0,0,0-.22c0-.08,0-.09.09,0a7.73,7.73,0,0,0,5.74,1.59l1.75-.39a.07.07,0,0,1,.09.05,33,33,0,0,1,.79,4.24,19.41,19.41,0,0,1,.2,2.44h0l.19,2.64c.25-.12.5-.26.74-.39l.94-.52c0-.46-.07-1-.12-1.73h0l-.17-2.45a.07.07,0,0,1,.06-.07,3,3,0,0,1,.64,0c.93.07,1.92.13,3,.19a.2.2,0,0,1,.18.16A4.07,4.07,0,0,0,78,89.55a2,2,0,0,0,1.64.73,4.26,4.26,0,0,0,1.76-.4,18.1,18.1,0,0,0,5.14-3.48,20.28,20.28,0,0,0,2.39-2.71,1.3,1.3,0,0,0,.22-.51q.64-3.17,1.19-6.47c.08-.47.15-.89.23-1.27s.16-.88.22-1.29c.11-.75.24-1.59.4-2.52.2-1.12.38-2.41.54-3.85.12-1,.32-2.11.42-3.13.06-.65.16-1.27.22-1.92.18-2.1.4-4.19.48-6.28S92.94,52.29,92.93,50ZM17.79,67.63a19.62,19.62,0,0,0,3,1.74c.38.19.77.33,1.17.49a31.7,31.7,0,0,0,6.69,1.87c.25,0,.5.11.74.17a.07.07,0,0,1,.05.1,45.23,45.23,0,0,0-1.94,5.9c-.21.75-.38,1.5-.54,2.25q-.29,1.45-.57,2.76a.11.11,0,0,1-.08.08,15.46,15.46,0,0,1-3.76.27,2.69,2.69,0,0,1-2.59-1.52,15.13,15.13,0,0,1-1.17-3.5A31.75,31.75,0,0,1,18.21,75c-.05-.47-.11-1-.19-1.47a3.6,3.6,0,0,1,0-.65,8.89,8.89,0,0,0-.07-.89c-.06-1-.13-2-.14-2.94,0-.43,0-.88-.07-1.37A.06.06,0,0,1,17.79,67.63Zm57.4-50.44a.09.09,0,0,1,.07,0,33.65,33.65,0,0,1,14,2.07,1.81,1.81,0,0,1,.35.16.19.19,0,0,1,.09.14q.06.61.06,1.29a30.29,30.29,0,0,1-.44,4.62A62.36,62.36,0,0,1,87.31,34c0,.1-.07.1-.12,0L86,31.69c-.46-.79-.92-1.56-1.36-2.3a61.52,61.52,0,0,0-5.6-7.89c-.69-.83-1.41-1.67-2.15-2.53L75.2,17.25A0,0,0,0,1,75.19,17.19Zm-60.13-.32a20.48,20.48,0,0,1,.37-3.23.47.47,0,0,1,.35-.41,28.84,28.84,0,0,1,9.27-.64s0,0,0,0l-2,1.59a2.15,2.15,0,0,1-.23.27,29.94,29.94,0,0,0-5.1,6.07c-.22.34-.66,1.09-1.32,2.23-.32.71-.68,1.48-1.07,2.32a.09.09,0,0,1-.06.06s0,0,0,0A65.27,65.27,0,0,1,15.06,16.87Zm54.15,65.2c-2.06.34-4.46-.24-5.47-2.18a1.93,1.93,0,0,1-.2-.67c-.23-2.1.72-3.81,3-4.11a5.73,5.73,0,0,1,2.38.19.86.86,0,0,0,.88-1.43.07.07,0,0,1,0-.12,14.25,14.25,0,0,0,1.65-.23.16.16,0,0,1,.17.08,10,10,0,0,1,1.06,4.53,4,4,0,0,1-.45,2A4.08,4.08,0,0,1,69.21,82.07ZM78,81.29c-.08.64-.17,1.4-.26,2.3s-.18,1.57-.29,2.37a.12.12,0,0,1-.12.1,20.92,20.92,0,0,0-2.4-.14c-.14,0-.31-.07-.44-.07l-1.06.07a.17.17,0,0,1-.18-.15,28.3,28.3,0,0,0-.67-3.14.08.08,0,0,1,0-.09c.26-.31.53-.63.83-1A6.27,6.27,0,0,0,74.45,77a11.42,11.42,0,0,0-1-3.82.07.07,0,0,1,.06-.1,20.1,20.1,0,0,0,5.43-2,.07.07,0,0,1,.1.07Q78.56,76.22,78,81.29Zm1-12.29a21.39,21.39,0,0,1-2.18,1.14,24,24,0,0,1-6.54,1.77s-.07,0-.07-.07a.26.26,0,0,1,.07-.16c.47-.5.84-1.06,1.33-1.53.32-.31.59-.66.89-1,1.28-1.32,2.36-2.53,3.24-3.61.37-.46.74-.91,1.09-1.36a30,30,0,0,0,2.68-4,.32.32,0,0,1,.1-.1.06.06,0,0,1,.09,0q-.11,4.08-.4,8.13C79.22,68.58,79.21,68.84,78.94,69ZM91.13,55.19c-.08,1.88-.22,4-.41,6Q90.08,67.63,89,74c-.17,1-.33,1.91-.48,2.75-.26,1.53-.59,3.32-1,5.37a2.23,2.23,0,0,1-.42,1,18.18,18.18,0,0,1-3.09,3.11,16.55,16.55,0,0,1-2.66,1.71,6.88,6.88,0,0,1-1.61.63c-.85.21-.72-1.5-.66-1.89s.13-1,.2-1.5c.33-2.82.65-5.6,1-8.36.28-2.55.52-5.2.73-7.93q.48-6.23.4-12.66a1.41,1.41,0,0,1,.07-.41,40.66,40.66,0,0,0,1.33-4.3.87.87,0,0,0-.54-1.06c-.74-.23-1.11.31-1.27.92a40.6,40.6,0,0,1-1.81,5.39,25.66,25.66,0,0,1-2.07,3.91c-.32.5-.63,1-1,1.49a54.86,54.86,0,0,1-4.38,5.22c-1.08,1.13-2,2.11-2.68,2.94a18.49,18.49,0,0,0-2,2.92.23.23,0,0,1-.21.13,5.49,5.49,0,0,0-4,1.79A4.52,4.52,0,0,0,62,77a5.38,5.38,0,0,0-.12,2.78,1.42,1.42,0,0,1,.06,1c-.09.23-.2.58-.33,1a23.51,23.51,0,0,0-.82,5.09.16.16,0,0,1-.11.15c-.68.24-2.21.46-2.56-.39a9.41,9.41,0,0,1-.58-2.53,18.22,18.22,0,0,1-.1-3.22,1.72,1.72,0,0,1,.37-.81,6.77,6.77,0,0,0,.66-5A5.88,5.88,0,0,0,58,73.74a.89.89,0,0,1-.09-.56c.81-4,1.46-7.11,2-9.19.1-.42.19-.82.28-1.19q.68-3,1.37-5.72c.16-.66.34-1.36.52-2.09q.78-3,1.6-6.21c.89-3.41,1.73-6.46,2.49-9.17.39-1.38.8-2.74,1.21-4.09a1.21,1.21,0,0,0,0-.71.91.91,0,0,0-1.52-.26,1.83,1.83,0,0,0-.28.58c-.28.92-.55,1.83-.83,2.73a.1.1,0,0,1-.09.07,36.63,36.63,0,0,1-5.94-.51c-.32-.05-.77-.09-.95-.41a28.75,28.75,0,0,1-3-7.67,2,2,0,0,0-.27-.7.89.89,0,0,0-1.3-.09,1.22,1.22,0,0,0-.27.51c-.1.34-.21.66-.33,1a13.28,13.28,0,0,0-.71,2.42,24.88,24.88,0,0,0-.43,4.47.16.16,0,0,1-.15.16,39,39,0,0,1-7.49,0c-.67-.06-1.39-.16-2.15-.29a20.39,20.39,0,0,1-2.1-.45,1.38,1.38,0,0,1-.73-.63,27.37,27.37,0,0,1-2.33-4.27A29.33,29.33,0,0,1,34.88,27a.88.88,0,0,0-1.71.37,4.46,4.46,0,0,0,.29,1.21.51.51,0,0,1,0,.4,24.37,24.37,0,0,0-1.1,3.42C32.24,33,32.12,33.5,32,34a9.22,9.22,0,0,0-.23,1.73s0,.07-.07.09a12.6,12.6,0,0,1-2.61.48,32.19,32.19,0,0,1-3.7.09c-.8,0-1.62-.09-2.44-.18a17.62,17.62,0,0,1-2.39-.44.47.47,0,0,1-.37-.32,26.13,26.13,0,0,1-1.51-7.1,4.32,4.32,0,0,1,0-.95.86.86,0,0,0-.73-1c-.71,0-1,.34-1,1a9.94,9.94,0,0,0,0,1.82,1.72,1.72,0,0,1-.26,1.06,33.88,33.88,0,0,0-2.18,7c-.1.5-.21,1-.32,1.55h0c0-.2,0-.41,0-.61a49.52,49.52,0,0,1,.65-5,39.81,39.81,0,0,1,1.65-6.15,28.56,28.56,0,0,1,9.9-13.29c.67-.48,1.34-.93,2-1.33a30.62,30.62,0,0,1,6.24-2.86A36.79,36.79,0,0,1,40.53,8.3a45.47,45.47,0,0,1,4.91-.49c1,0,2.06,0,3.35,0,.81,0,1.59,0,2.35.07a57.52,57.52,0,0,1,6.21.69,43.81,43.81,0,0,1,17.34,6.69q.3.19-.06.21a6.62,6.62,0,0,0-1.55.2,1,1,0,0,0-.29,1.86,34.38,34.38,0,0,1,3,2.94A64.06,64.06,0,0,1,86.44,36.52a1,1,0,0,0,1.18.55c.52-.09.69-.39.86-.86s.22-.67.31-1,.14-.26.22,0a45.2,45.2,0,0,1,1.23,5.1,57.36,57.36,0,0,1,.88,8.15C91.21,50.91,91.21,53.14,91.13,55.19Z"/><path id="_0-26" data-name="0" class="cls-3" d="M35.33,72.46c-4.39,6.4-6.21,14.31-6.81,20.69-.11-.06-.23-.11-.34-.18a.28.28,0,0,1-.09,0l-.84-.43c0-.67.06-1.45.11-2.29A59.61,59.61,0,0,1,30,75.7a30.39,30.39,0,0,1,1.29-3.43.19.19,0,0,1,.19-.13Z"/><path id="_0-27" data-name="0" class="cls-3" d="M72.09,92.84,71.8,93l-.37.18c-.13.08-.28.14-.41.21l-.37.18s0,0-.06,0a35,35,0,0,0-1.53-9.73l1.74-.4a.08.08,0,0,1,.09.06,34.5,34.5,0,0,1,.8,4.24,24.57,24.57,0,0,1,.19,2.45h0Z"/><path id="_0-28" data-name="0" class="cls-8" d="M25.87,53.22c.8.91,3.92,1.44,5.85.5"/><path id="_0-29" data-name="0" class="cls-8" d="M52.57,55.12c.8.91,3.92,1.44,5.86.5"/></g></svg>